<svg xmlns="http://www.w3.org/2000/svg" xmlns:xlink="http://www.w3.org/1999/xlink" version="1.1" width="1024" height="768" viewBox="0 0 1024 768" xml:space="preserve">
<desc>Created with Fabric.js 6.7.1</desc>
<defs>
</defs>
<g transform="matrix(1 0 0 1 511.99 383.995)" id="a">
<path style="stroke: none; stroke-width: 1; stroke-dasharray: none; stroke-linecap: butt; stroke-dashoffset: 0; stroke-linejoin: miter; stroke-miterlimit: 4; fill: rgb(14,14,14); fill-rule: nonzero; opacity: 1;" transform=" translate(-511.99, -383.995)" d="M 465.74 353.27 L 465.74 384.56 L 560.99 384.56 L 560.99 353.27 C 597.54 335.27 621.08 297.89 621.08 256.91 C 621.08 197.66 572.62 149.2 513.37 149.2 C 454.12 149.2 405.66 197.66 405.66 256.91 C 405.66 297.89 429.2 335.27 465.75 353.27 Z M 448.29 277.4 C 440.81 273.8 435.28 265.77 435.28 256.91 C 435.28 244.45 445.52 234.2 457.99 234.2 C 470.46 234.2 480.7 244.44 480.7 256.91 C 480.7 269.38 470.46 279.62 457.99 279.62 C 454.67 279.62 451.62 278.79 448.85 277.68 L 448.85 277.4 L 448.3 277.4 Z M 465.74 341.37 C 459.65 338.05 453.83 333.89 448.85 329.19 L 465.74 329.19 L 465.74 341.37 Z M 560.99 341.37 L 560.99 329.19 L 577.88 329.19 C 572.62 333.9 567.08 337.77 560.99 341.37 Z M 587.85 318.66 L 578.44 318.66 L 578.44 288.2 C 578.99 288.2 578.99 287.92 579.27 287.92 L 605.02 287.92 C 601.14 299 595.33 309.52 587.85 318.65 Z M 567.36 279.62 C 554.9 279.62 544.65 269.38 544.65 256.91 C 544.65 244.44 554.89 234.2 567.36 234.2 C 579.83 234.2 590.07 244.44 590.07 256.91 C 590.07 269.38 580.1 279.62 567.36 279.62 Z M 416.45 256.91 C 416.45 203.47 459.92 160 513.36 160 C 566.8 160 610.27 203.47 610.27 256.91 C 610.27 263.83 609.44 270.75 608.05 277.4 L 593.65 277.4 C 598.08 271.86 600.85 264.66 600.85 256.91 C 600.85 238.64 585.9 223.68 567.62 223.68 C 549.34 223.68 534.39 238.63 534.39 256.91 C 534.39 275.19 549.34 290.14 567.62 290.14 L 568.17 290.14 L 568.17 318.66 L 550.45 318.66 L 550.45 373.76 L 541.59 373.76 L 541.59 323.92 C 541.59 320.87 539.1 318.66 536.33 318.66 C 533.28 318.66 531.07 321.15 531.07 323.92 L 531.07 373.76 L 518.61 373.76 L 518.61 323.92 C 518.61 320.87 516.12 318.66 513.35 318.66 C 510.58 318.66 508.09 321.15 508.09 323.92 L 508.09 373.76 L 495.63 373.76 L 495.63 323.92 C 495.63 320.87 493.14 318.66 490.37 318.66 C 487.32 318.66 485.11 321.15 485.11 323.92 L 485.11 373.76 L 476.25 373.76 L 476.25 318.38 L 458.81 318.38 L 458.81 290.14 C 476.81 289.59 491.21 274.91 491.21 256.91 C 491.21 238.91 476.26 223.68 457.98 223.68 C 439.7 223.68 424.75 238.63 424.75 256.91 C 424.75 264.66 427.52 271.59 431.95 277.4 L 418.66 277.4 C 417.28 270.75 416.44 263.83 416.44 256.91 Z M 446.08 287.93 C 446.91 288.21 447.46 288.48 448.3 288.76 L 448.3 318.66 L 438.61 318.66 C 431.13 309.52 425.32 299.28 421.44 287.93 L 446.08 287.93 Z M 302.15 413.27 L 270.62 413.27 L 270.62 532.9 L 302.15 532.9 C 288.84 528.29 275.74 518.03 275.74 497.86 L 275.74 448.3 C 275.74 428.13 288.84 417.88 302.15 413.26 Z M 336.55 532.9 L 369.72 532.9 L 369.72 413.27 L 336.55 413.27 C 348.49 417.41 360.25 426.09 362.55 442.39 L 362.55 462.32 L 335.12 462.32 L 335.12 448.31 C 335.12 437.54 327.34 433.27 319.36 433.27 C 311.38 433.27 303.6 437.54 303.6 448.31 L 303.6 497.87 C 303.6 508.64 311.38 512.91 319.36 512.91 C 327.34 512.91 335.12 508.64 335.12 497.87 L 335.12 484.37 L 362.55 484.37 L 362.55 503.78 C 360.25 520.08 348.49 528.77 336.55 532.9 Z M 467.78 454.11 C 467.78 438.22 456.52 435.31 450.99 435.31 L 439.53 435.31 L 439.53 472.74 L 450.99 472.74 C 456.52 472.74 467.78 470.01 467.78 454.11 Z M 404.93 532.9 L 411.89 532.9 L 411.89 413.27 L 397.76 413.27 L 397.76 532.9 L 404.93 532.9 Z M 530.84 532.9 L 558.27 532.9 L 558.27 484.36 L 530.84 484.36 L 530.84 532.9 Z M 558.27 413.27 L 530.84 413.27 L 530.84 462.32 L 558.27 462.32 L 558.27 413.27 Z M 439.53 532.9 L 502.79 532.9 L 502.79 413.27 L 449.56 413.27 C 475.56 413.27 494.4 427.46 494.4 454.12 C 494.4 480.78 475.56 494.97 449.56 494.97 L 439.53 494.97 L 439.53 532.91 Z M 586.11 413.27 L 586.11 532.9 L 599.83 532.9 L 599.83 413.27 L 586.11 413.27 Z M 730.24 488.98 C 742.11 482.49 749.48 470.69 749.48 454.12 C 749.48 427.46 730.64 413.27 704.64 413.27 L 666.56 413.27 L 666.56 435.32 L 627.87 435.32 L 627.87 462.32 L 664.11 462.32 L 664.11 484.37 L 627.87 484.37 L 627.87 510.86 L 666.56 510.86 L 666.56 532.91 L 694.4 532.91 L 694.4 494.97 L 705.46 494.97 L 725.52 532.91 L 753.36 532.91 L 730.23 488.99 Z M 706.08 472.74 L 694.41 472.74 L 694.41 435.31 L 706.08 435.31 C 711.4 435.31 722.87 438.22 722.87 454.11 C 722.87 470 711.41 472.74 706.08 472.74 Z M 492.6 299 C 493.98 302.05 496.48 304.81 499.52 306.2 C 501.18 307.03 503.12 307.58 505.06 307.58 C 506.44 307.58 507.55 307.3 508.66 307.03 C 510.32 306.48 511.71 305.65 513.09 304.54 C 514.47 305.65 516.14 306.48 517.52 307.03 C 518.63 307.31 520.01 307.58 521.12 307.58 C 523.06 307.58 525 307.03 526.66 306.2 C 529.98 304.54 532.47 302.05 533.58 299 C 534.96 295.68 534.69 292.08 533.3 288.76 C 531.92 284.61 524.99 277.41 518.62 271.32 L 518.62 243.35 C 518.62 240.3 516.13 238.09 513.36 238.09 C 510.59 238.09 508.1 240.58 508.1 243.35 L 508.1 271.32 L 508.1 271.32 C 501.73 277.41 494.81 284.61 492.87 288.76 C 491.49 292.08 491.21 295.68 492.59 299 Z M 498.97 291.8 C 499.8 290.14 502.85 285.99 512.81 276.57 C 513.09 276.57 513.09 276.29 513.09 276.29 C 513.15 276.29 513.19 276.31 513.23 276.33 C 513.1 276.4 513.09 276.57 513.09 276.57 L 513.37 276.57 C 523.34 285.98 526.38 290.14 527.21 291.8 C 528.32 293.46 528.32 295.12 527.76 296.51 C 527.21 297.89 525.82 299.28 524.16 300.11 C 522.78 300.66 521.39 300.94 519.73 300.39 C 518.62 300.11 517.24 299.01 516.13 297.34 L 513.36 293.19 L 510.31 297.34 C 509.2 298.72 508.09 299.83 506.71 300.39 C 505.33 300.94 503.66 300.67 502.28 300.11 C 500.62 299.28 499.51 298.17 498.68 296.51 C 498.13 295.13 498.13 293.46 498.96 291.8 Z M 480.14 206.52 C 479.03 208.18 479.59 210.12 480.97 211.23 C 481.52 211.51 482.08 211.78 482.91 211.78 C 484.02 211.78 485.13 211.23 485.68 210.12 L 500.91 187.69 L 484.57 188.8 L 491.77 178 C 492.88 176.34 492.32 174.4 490.94 173.29 C 489.28 172.18 487.06 172.74 486.23 174.12 L 471.28 196.27 L 487.62 195.44 L 480.14 206.52 Z M 353.51 589.78 L 391.25 589.78 L 391.25 585.92 L 353.51 585.92 L 353.51 589.78 Z M 353.51 562.22 L 391.25 562.22 L 391.25 558.27 L 353.51 558.27 L 353.51 562.22 Z M 353.51 618.37 L 391.25 618.37 L 391.25 614.42 L 353.51 614.42 L 353.51 618.37 Z M 427.81 612.7 L 404.23 558.27 L 399.56 558.27 L 425.55 618.36 L 429.8 618.36 L 455.79 558.27 L 451.37 558.27 L 427.79 612.7 Z M 466.47 618.37 L 504.21 618.37 L 504.21 614.42 L 466.47 614.42 L 466.47 618.37 Z M 466.47 562.22 L 504.21 562.22 L 504.21 558.27 L 466.47 558.27 L 466.47 562.22 Z M 466.47 589.78 L 504.21 589.78 L 504.21 585.92 L 466.47 585.92 L 466.47 589.78 Z M 565.43 610.47 L 525.78 558.28 L 522.2 558.28 L 522.2 618.37 L 526.45 618.37 L 526.45 566.18 L 566.19 618.37 L 569.69 618.37 L 569.69 558.28 L 565.44 558.28 L 565.44 610.47 Z M 580.17 562.22 L 601.16 562.22 L 601.16 618.36 L 605.41 618.36 L 605.41 562.22 L 626.4 562.22 L 626.4 558.27 L 580.17 558.27 L 580.17 562.22 Z M 663.98 589.78 C 661.4 588.75 657.98 587.72 653.73 586.6 C 649.9 585.66 646.9 584.71 644.65 583.85 C 642.4 582.99 640.57 581.79 639.07 580.16 C 637.57 578.53 636.82 576.38 636.82 573.72 C 636.82 570.2 638.24 567.28 640.99 565.05 C 643.74 562.82 647.82 561.7 653.24 561.7 C 655.99 561.7 658.74 562.13 661.57 562.99 C 664.32 563.85 666.9 565.14 669.23 566.77 L 670.81 563.25 C 668.56 561.62 665.81 560.25 662.73 559.3 C 659.65 558.36 656.48 557.84 653.23 557.84 C 648.65 557.84 644.82 558.53 641.73 559.99 C 638.65 561.45 636.32 563.34 634.82 565.74 C 633.32 568.23 632.57 570.89 632.57 573.81 C 632.57 577.42 633.49 580.25 635.32 582.39 C 637.07 584.54 639.32 586.17 641.9 587.2 C 644.48 588.23 647.9 589.26 652.15 590.38 C 655.9 591.32 658.9 592.18 661.15 593.04 C 663.4 593.9 665.23 595.1 666.73 596.73 C 668.23 598.36 668.98 600.51 668.98 603.17 C 668.98 606.69 667.56 609.52 664.73 611.67 C 661.9 613.82 657.73 614.93 652.15 614.93 C 648.32 614.93 644.65 614.24 641.24 612.78 C 637.74 611.41 634.99 609.6 632.91 607.37 L 630.99 610.63 C 633.16 613.03 636.15 615.01 640.07 616.47 C 643.9 618.02 647.98 618.79 652.23 618.79 C 656.81 618.79 660.73 618.1 663.89 616.64 C 667.05 615.18 669.39 613.29 670.97 610.89 C 672.47 608.49 673.22 605.83 673.22 602.91 C 673.22 599.39 672.3 596.56 670.55 594.41 C 668.72 592.35 666.55 590.8 663.97 589.77 Z" stroke-linecap="round"/>
</g>
</svg>