<svg xmlns="http://www.w3.org/2000/svg" xmlns:xlink="http://www.w3.org/1999/xlink" version="1.1" width="1024" height="768" viewBox="0 0 1024 768" xml:space="preserve">
<desc>Created with Fabric.js 6.7.1</desc>
<defs>
</defs>
<g transform="matrix(1 0 0 1 286.385 473.08)" id="a">
<path style="stroke: none; stroke-width: 1; stroke-dasharray: none; stroke-linecap: butt; stroke-dashoffset: 0; stroke-linejoin: miter; stroke-miterlimit: 4; fill: rgb(255,80,192); fill-rule: nonzero; opacity: 1;" transform=" translate(-286.385, -473.08)" d="M 302.15 413.27 L 270.62 413.27 L 270.62 532.9 L 302.15 532.9 C 288.84 528.29 275.74 518.03 275.74 497.86 L 275.74 448.3 C 275.74 428.13 288.84 417.88 302.15 413.26 Z" stroke-linecap="round"/>
</g>
<g transform="matrix(1 0 0 1 336.66 473.085)" id="a">
<path style="stroke: none; stroke-width: 1; stroke-dasharray: none; stroke-linecap: butt; stroke-dashoffset: 0; stroke-linejoin: miter; stroke-miterlimit: 4; fill: rgb(255,80,192); fill-rule: nonzero; opacity: 1;" transform=" translate(-336.66, -473.085)" d="M 362.55 413.27 L 336.55 413.27 C 348.49 417.41 360.25 426.09 362.55 442.39 L 362.55 462.32 L 335.12 462.32 L 335.12 448.31 C 335.12 437.54 327.34 433.27 319.36 433.27 C 311.38 433.27 303.6 437.54 303.6 448.31 L 303.6 497.87 C 303.6 508.64 311.38 512.91 319.36 512.91 C 327.34 512.91 335.12 508.64 335.12 497.87 L 335.12 484.37 L 362.55 484.37 L 362.55 503.78 C 360.25 520.08 348.49 528.77 336.55 532.9 L 369.72 532.9 L 369.72 413.27 L 362.55 413.27 Z" stroke-linecap="round"/>
</g>
<g transform="matrix(1 0 0 1 453.655 454.025)" id="a">
<path style="stroke: none; stroke-width: 1; stroke-dasharray: none; stroke-linecap: butt; stroke-dashoffset: 0; stroke-linejoin: miter; stroke-miterlimit: 4; fill: rgb(255,80,192); fill-rule: nonzero; opacity: 1;" transform=" translate(-453.655, -454.025)" d="M 467.78 454.11 C 467.78 438.22 456.52 435.31 450.99 435.31 L 439.53 435.31 L 439.53 472.74 L 450.99 472.74 C 456.52 472.74 467.78 470.01 467.78 454.11 Z" stroke-linecap="round"/>
</g>
<g transform="matrix(1 0 0 1 404.825 473.085)" id="a">
<polygon style="stroke: none; stroke-width: 1; stroke-dasharray: none; stroke-linecap: butt; stroke-dashoffset: 0; stroke-linejoin: miter; stroke-miterlimit: 4; fill: rgb(255,80,192); fill-rule: nonzero; opacity: 1;" points="-0.515,-59.815 -7.065,-59.815 -7.065,59.815 -0.515,59.815 0.105,59.815 7.065,59.815 7.065,-59.815 0.105,-59.815 -0.515,-59.815 "/>
</g>
<g transform="matrix(1 0 0 1 544.555 508.63)" id="a">
<rect style="stroke: none; stroke-width: 1; stroke-dasharray: none; stroke-linecap: butt; stroke-dashoffset: 0; stroke-linejoin: miter; stroke-miterlimit: 4; fill: rgb(255,80,192); fill-rule: nonzero; opacity: 1;" x="-13.715" y="-24.27" rx="0" ry="0" width="27.43" height="48.54"/>
</g>
<g transform="matrix(1 0 0 1 544.555 437.795)" id="a">
<rect style="stroke: none; stroke-width: 1; stroke-dasharray: none; stroke-linecap: butt; stroke-dashoffset: 0; stroke-linejoin: miter; stroke-miterlimit: 4; fill: rgb(255,80,192); fill-rule: nonzero; opacity: 1;" x="-13.715" y="-24.525" rx="0" ry="0" width="27.43" height="49.05"/>
</g>
<g transform="matrix(1 0 0 1 471.15 473.09)" id="a">
<path style="stroke: none; stroke-width: 1; stroke-dasharray: none; stroke-linecap: butt; stroke-dashoffset: 0; stroke-linejoin: miter; stroke-miterlimit: 4; fill: rgb(255,80,192); fill-rule: nonzero; opacity: 1;" transform=" translate(-471.15, -473.09)" d="M 494.76 413.27 L 449.55 413.27 C 475.55 413.27 494.39 427.46 494.39 454.12 C 494.39 480.78 475.55 494.97 449.55 494.97 L 439.52 494.97 L 439.52 532.91 L 502.78 532.91 L 502.78 413.28 L 494.76 413.28 Z" stroke-linecap="round"/>
</g>
<g transform="matrix(1 0 0 1 592.97 473.085)" id="a">
<polygon style="stroke: none; stroke-width: 1; stroke-dasharray: none; stroke-linecap: butt; stroke-dashoffset: 0; stroke-linejoin: miter; stroke-miterlimit: 4; fill: rgb(255,80,192); fill-rule: nonzero; opacity: 1;" points="-0.31,-59.815 -6.86,-59.815 -6.86,59.815 -0.31,59.815 0.31,59.815 6.86,59.815 6.86,-59.815 0.31,-59.815 -0.31,-59.815 "/>
</g>
<g transform="matrix(1 0 0 1 690.615 473.09)" id="a">
<path style="stroke: none; stroke-width: 1; stroke-dasharray: none; stroke-linecap: butt; stroke-dashoffset: 0; stroke-linejoin: miter; stroke-miterlimit: 4; fill: rgb(255,80,192); fill-rule: nonzero; opacity: 1;" transform=" translate(-690.615, -473.09)" d="M 730.24 488.98 C 742.11 482.49 749.48 470.69 749.48 454.12 C 749.48 427.46 730.64 413.27 704.64 413.27 L 666.56 413.27 L 666.56 435.32 L 627.87 435.32 L 627.87 462.32 L 664.11 462.32 L 664.11 484.37 L 627.87 484.37 L 627.87 510.86 L 666.56 510.86 L 666.56 532.91 L 694.4 532.91 L 694.4 494.97 L 705.46 494.97 L 725.52 532.91 L 753.36 532.91 L 730.23 488.99 Z M 706.08 472.74 L 694.41 472.74 L 694.41 435.31 L 706.08 435.31 C 711.4 435.31 722.87 438.22 722.87 454.11 C 722.87 470 711.41 472.74 706.08 472.74 Z" stroke-linecap="round"/>
</g>
<g transform="matrix(1 0 0 1 513.365 266.88)" id="a">
<path style="stroke: none; stroke-width: 1; stroke-dasharray: none; stroke-linecap: butt; stroke-dashoffset: 0; stroke-linejoin: miter; stroke-miterlimit: 4; fill: rgb(255,255,255); fill-rule: nonzero; opacity: 1;" transform=" translate(-513.365, -266.88)" d="M 513.36 149.2 C 454.11 149.2 405.65 197.66 405.65 256.91 C 405.65 297.89 429.19 335.27 465.74 353.27 L 465.74 384.56 L 560.99 384.56 L 560.99 353.27 C 597.54 335.27 621.08 297.89 621.08 256.91 C 621.08 197.66 572.62 149.2 513.37 149.2 Z M 448.29 318.66 L 438.6 318.66 C 431.12 309.52 425.31 299.28 421.43 287.93 L 446.07 287.93 C 446.9 288.21 447.45 288.48 448.29 288.76 L 448.29 318.66 Z M 435.28 256.91 C 435.28 244.45 445.52 234.2 457.99 234.2 C 470.46 234.2 480.7 244.44 480.7 256.91 C 480.7 269.38 470.46 279.62 457.99 279.62 C 454.67 279.62 451.62 278.79 448.85 277.68 L 448.85 277.4 L 448.3 277.4 C 440.82 273.8 435.29 265.77 435.29 256.91 Z M 465.74 341.37 C 459.65 338.05 453.83 333.89 448.85 329.19 L 465.74 329.19 L 465.74 341.37 Z M 560.99 341.37 L 560.99 329.19 L 577.88 329.19 C 572.62 333.9 567.08 337.77 560.99 341.37 Z M 587.85 318.66 L 578.44 318.66 L 578.44 288.2 C 578.99 288.2 578.99 287.92 579.27 287.92 L 605.02 287.92 C 601.14 299 595.33 309.52 587.85 318.65 Z M 567.36 279.62 C 554.9 279.62 544.65 269.38 544.65 256.91 C 544.65 244.44 554.89 234.2 567.36 234.2 C 579.83 234.2 590.07 244.44 590.07 256.91 C 590.07 269.38 580.1 279.62 567.36 279.62 Z M 593.66 277.4 C 598.09 271.86 600.86 264.66 600.86 256.91 C 600.86 238.64 585.91 223.68 567.63 223.68 C 549.35 223.68 534.4 238.63 534.4 256.91 C 534.4 275.19 549.35 290.14 567.63 290.14 L 568.18 290.14 L 568.18 318.66 L 550.46 318.66 L 550.46 373.76 L 541.6 373.76 L 541.6 323.92 C 541.6 320.87 539.11 318.66 536.34 318.66 C 533.29 318.66 531.08 321.15 531.08 323.92 L 531.08 373.76 L 518.62 373.76 L 518.62 323.92 C 518.62 320.87 516.13 318.66 513.36 318.66 C 510.59 318.66 508.1 321.15 508.1 323.92 L 508.1 373.76 L 495.64 373.76 L 495.64 323.92 C 495.64 320.87 493.15 318.66 490.38 318.66 C 487.33 318.66 485.12 321.15 485.12 323.92 L 485.12 373.76 L 476.26 373.76 L 476.26 318.38 L 458.82 318.38 L 458.82 290.14 C 476.82 289.59 491.22 274.91 491.22 256.91 C 491.22 238.91 476.27 223.68 457.99 223.68 C 439.71 223.68 424.76 238.63 424.76 256.91 C 424.76 264.66 427.53 271.59 431.96 277.4 L 418.67 277.4 C 417.29 270.75 416.45 263.83 416.45 256.91 C 416.45 203.47 459.92 160 513.36 160 C 566.8 160 610.27 203.47 610.27 256.91 C 610.27 263.83 609.44 270.75 608.05 277.4 L 593.65 277.4 Z" stroke-linecap="round"/>
</g>
<g transform="matrix(1 0 0 1 513.0917 272.825)" id="a">
<path style="stroke: none; stroke-width: 1; stroke-dasharray: none; stroke-linecap: butt; stroke-dashoffset: 0; stroke-linejoin: miter; stroke-miterlimit: 4; fill: rgb(255,255,255); fill-rule: nonzero; opacity: 1;" transform=" translate(-513.0917, -272.825)" d="M 518.63 271.31 L 518.63 243.34 C 518.63 240.29 516.14 238.08 513.37 238.08 C 510.6 238.08 508.11 240.57 508.11 243.34 L 508.11 271.31 L 508.11 271.31 C 501.74 277.4 494.82 284.6 492.88 288.75 C 491.5 292.07 491.22 295.67 492.6 298.99 C 493.98 302.04 496.48 304.8 499.52 306.19 C 501.18 307.02 503.12 307.57 505.06 307.57 C 506.44 307.57 507.55 307.29 508.66 307.02 C 510.32 306.47 511.71 305.64 513.09 304.53 C 514.47 305.64 516.14 306.47 517.52 307.02 C 518.63 307.3 520.01 307.57 521.12 307.57 C 523.06 307.57 525 307.02 526.66 306.19 C 529.98 304.53 532.47 302.04 533.58 298.99 C 534.96 295.67 534.69 292.07 533.3 288.75 C 531.92 284.6 524.99 277.4 518.62 271.31 Z M 527.76 296.51 C 527.21 297.89 525.82 299.28 524.16 300.11 C 522.78 300.66 521.39 300.94 519.73 300.39 C 518.62 300.11 517.24 299.01 516.13 297.34 L 513.36 293.19 L 510.31 297.34 C 509.2 298.72 508.09 299.83 506.71 300.39 C 505.33 300.94 503.66 300.67 502.28 300.11 C 500.62 299.28 499.51 298.17 498.68 296.51 C 498.13 295.13 498.13 293.46 498.96 291.8 C 499.79 290.14 502.84 285.99 512.8 276.57 C 513.08 276.57 513.08 276.29 513.08 276.29 C 513.14 276.29 513.18 276.31 513.22 276.33 C 513.09 276.4 513.08 276.57 513.08 276.57 L 513.36 276.57 C 523.33 285.98 526.37 290.14 527.2 291.8 C 528.31 293.46 528.31 295.12 527.75 296.51 Z" stroke-linecap="round"/>
</g>
<g transform="matrix(1 0 0 1 486.095 192.2404)" id="a">
<path style="stroke: none; stroke-width: 1; stroke-dasharray: none; stroke-linecap: butt; stroke-dashoffset: 0; stroke-linejoin: miter; stroke-miterlimit: 4; fill: rgb(255,255,255); fill-rule: nonzero; opacity: 1;" transform=" translate(-486.095, -192.2403)" d="M 484.57 188.8 L 491.77 178 C 492.88 176.34 492.32 174.4 490.94 173.29 C 489.28 172.18 487.06 172.74 486.23 174.12 L 471.28 196.27 L 487.62 195.44 L 480.14 206.52 C 479.03 208.18 479.59 210.12 480.97 211.23 C 481.52 211.51 482.08 211.78 482.91 211.78 C 484.02 211.78 485.13 211.23 485.68 210.12 L 500.91 187.69 L 484.57 188.8 Z" stroke-linecap="round"/>
</g>
<g transform="matrix(1 0 0 1 372.38 588.325)" id="a">
<path style="stroke: none; stroke-width: 1; stroke-dasharray: none; stroke-linecap: butt; stroke-dashoffset: 0; stroke-linejoin: miter; stroke-miterlimit: 4; fill: rgb(238,238,255); fill-rule: nonzero; opacity: 1;" transform=" translate(-372.38, -588.325)" d="M 353.51 614.42 L 353.51 618.37 L 391.25 618.37 L 391.25 614.42 L 353.51 614.42 Z M 391.25 558.28 L 353.51 558.28 L 353.51 562.23 L 391.25 562.23 L 391.25 558.28 Z M 391.25 585.92 L 353.51 585.92 L 353.51 589.78 L 391.25 589.78 L 391.25 585.92 Z" stroke-linecap="round"/>
</g>
<g transform="matrix(1 0 0 1 427.69 588.325)" id="a">
<polygon style="stroke: none; stroke-width: 1; stroke-dasharray: none; stroke-linecap: butt; stroke-dashoffset: 0; stroke-linejoin: miter; stroke-miterlimit: 4; fill: rgb(238,238,255); fill-rule: nonzero; opacity: 1;" points="28.12,-30.045 23.7,-30.045 0.12,24.375 -23.45,-30.045 -28.12,-30.045 -2.12,30.045 2.12,30.045 28.12,-30.045 "/>
</g>
<g transform="matrix(1 0 0 1 485.335 588.325)" id="a">
<path style="stroke: none; stroke-width: 1; stroke-dasharray: none; stroke-linecap: butt; stroke-dashoffset: 0; stroke-linejoin: miter; stroke-miterlimit: 4; fill: rgb(238,238,255); fill-rule: nonzero; opacity: 1;" transform=" translate(-485.335, -588.325)" d="M 466.47 614.42 L 466.47 618.37 L 504.21 618.37 L 504.21 614.42 L 466.47 614.42 Z M 504.2 558.28 L 466.46 558.28 L 466.46 562.23 L 504.2 562.23 L 504.2 558.28 Z M 504.2 585.92 L 466.46 585.92 L 466.46 589.78 L 504.2 589.78 L 504.2 585.92 Z" stroke-linecap="round"/>
</g>
<g transform="matrix(1 0 0 1 545.935 588.325)" id="a">
<polygon style="stroke: none; stroke-width: 1; stroke-dasharray: none; stroke-linecap: butt; stroke-dashoffset: 0; stroke-linejoin: miter; stroke-miterlimit: 4; fill: rgb(238,238,255); fill-rule: nonzero; opacity: 1;" points="23.745,-30.045 19.495,-30.045 19.495,22.145 -20.155,-30.045 -23.745,-30.045 -23.745,30.045 -19.495,30.045 -19.495,-22.155 20.245,30.045 23.745,30.045 23.745,-30.045 "/>
</g>
<g transform="matrix(1 0 0 1 603.29 588.325)" id="a">
<polygon style="stroke: none; stroke-width: 1; stroke-dasharray: none; stroke-linecap: butt; stroke-dashoffset: 0; stroke-linejoin: miter; stroke-miterlimit: 4; fill: rgb(238,238,255); fill-rule: nonzero; opacity: 1;" points="-2.12,-26.105 -2.12,30.045 2.12,30.045 2.12,-26.105 23.12,-26.105 23.12,-30.045 -23.12,-30.045 -23.12,-26.105 -2.12,-26.105 "/>
</g>
<g transform="matrix(1 0 0 1 652.1 588.32)" id="a">
<path style="stroke: none; stroke-width: 1; stroke-dasharray: none; stroke-linecap: butt; stroke-dashoffset: 0; stroke-linejoin: miter; stroke-miterlimit: 4; fill: rgb(238,238,255); fill-rule: nonzero; opacity: 1;" transform=" translate(-652.1, -588.32)" d="M 640.07 616.48 C 643.9 618.03 647.98 618.8 652.23 618.8 C 656.81 618.8 660.73 618.11 663.89 616.65 C 667.06 615.19 669.39 613.3 670.97 610.9 C 672.47 608.5 673.22 605.84 673.22 602.92 C 673.22 599.4 672.3 596.57 670.55 594.42 C 668.72 592.36 666.55 590.81 663.97 589.78 C 661.39 588.75 657.97 587.72 653.72 586.6 C 649.89 585.66 646.89 584.71 644.64 583.85 C 642.39 582.99 640.56 581.79 639.06 580.16 C 637.56 578.53 636.81 576.38 636.81 573.72 C 636.81 570.2 638.23 567.28 640.98 565.05 C 643.73 562.82 647.81 561.7 653.23 561.7 C 655.98 561.7 658.73 562.13 661.56 562.99 C 664.31 563.85 666.89 565.14 669.22 566.77 L 670.8 563.25 C 668.55 561.62 665.8 560.25 662.72 559.3 C 659.64 558.36 656.47 557.84 653.22 557.84 C 648.64 557.84 644.81 558.53 641.72 559.99 C 638.64 561.45 636.31 563.34 634.81 565.74 C 633.31 568.23 632.56 570.89 632.56 573.81 C 632.56 577.42 633.48 580.25 635.31 582.39 C 637.06 584.54 639.31 586.17 641.89 587.2 C 644.47 588.23 647.89 589.26 652.14 590.38 C 655.89 591.32 658.89 592.18 661.14 593.04 C 663.39 593.9 665.22 595.1 666.72 596.73 C 668.22 598.36 668.97 600.51 668.97 603.17 C 668.97 606.69 667.55 609.52 664.72 611.67 C 661.89 613.82 657.72 614.93 652.14 614.93 C 648.31 614.93 644.64 614.24 641.23 612.78 C 637.73 611.41 634.98 609.6 632.9 607.37 L 630.98 610.63 C 633.15 613.03 636.14 615.01 640.06 616.47 Z" stroke-linecap="round"/>
</g>
</svg>